<?xml version="1.0" encoding="utf-8"?>
<!-- Generator: Adobe Illustrator 21.1.0, SVG Export Plug-In . SVG Version: 6.00 Build 0)  -->
<svg version="1.1" id="Layer_1" xmlns="http://www.w3.org/2000/svg" xmlns:xlink="http://www.w3.org/1999/xlink" x="0px" y="0px"
	 viewBox="0 0 2500 1715" style="enable-background:new 0 0 2500 1715;" xml:space="preserve">
<style type="text/css">
	.st0{fill:#012F14;}
	.st1{fill:#B3B3B3;}
	.st2{fill:#1E8449;}
	.st3{fill:#626262;}
</style>
<path class="st0" d="M225.8,1591.8c0,5.5-4.6,10-10.1,10H20.6c4.9,48.2,41.1,92.2,92.2,92.2c34.9,0,60.8-13.3,80.2-41.1
	c2.8-3.8,7-6.3,12.4-4c2.9,1.3,5,4,5.5,7c0.5,3.2-0.4,5-1.3,6.8c-19.6,34.2-58.7,51-97,51C47,1713.7,0.2,1655,0.2,1592.2
	c0-62.8,46.8-121.5,112.4-121.5C178.3,1470.6,225.7,1529.1,225.8,1591.8 M204.9,1582.3c-4.2-48.2-41.1-92.2-92.2-92.2
	s-87.3,44-92.2,92.2H204.9z M462.5,1475.4c5.6,0,9.7,4.9,9.7,9.7c0,5.6-4.2,9.7-9.7,9.7h-52.3v205.2c0,4.9-4.2,9.7-9.7,9.7
	c-5.6,0-9.7-4.9-9.7-9.7v-205.2h-50.2c-5.6,0-9.7-4.2-9.7-9.7c0-4.9,4.2-9.7,9.7-9.7h50.2v-75.1c0-4.7,3.2-9.1,7.8-9.9
	c6.5-1,11.7,3.5,11.7,9.6v75.4L462.5,1475.4L462.5,1475.4z M781.6,1574.6V1699c0,5.6-4.9,9.7-9.7,9.7c-5.6,0-9.7-4.2-9.7-9.7v-124.3
	c0-41.9-23.7-83.8-70.5-83.8c-60,0-85.9,52.4-82.4,106.1c0,1.4,0.6,7.7,0.6,8.3v93.3c0,4.7-3.2,9.1-7.8,9.9
	c-6.5,1-11.7-3.5-11.7-9.6v-408.4c0-4.9,4.2-9.7,9.7-9.7c5.6,0,9.7,4.9,9.7,9.7v231.1c16.8-30,46.8-50.2,81.6-50.2
	C748.8,1471.3,781.6,1521.6,781.6,1574.6 M1131.4,1591.8c0,5.5-4.6,10-10.1,10H926c4.9,48.2,41.1,92.2,92.2,92.2
	c34.9,0,60.8-13.3,80.2-41.1c2.8-3.8,7-6.3,12.4-4c2.9,1.3,5,4,5.5,7c0.5,3.2-0.4,5-1.3,6.8c-19.6,34.2-58.7,51-97,51
	c-65.6,0-112.4-58.7-112.4-121.5c0-62.8,46.8-121.5,112.4-121.5C1083.8,1470.6,1131.2,1529.1,1131.4,1591.8 M1110.4,1582.3
	c-4.2-48.2-41.1-92.2-92.2-92.2c-51,0-87.3,44-92.2,92.2H1110.4z M1370.8,1484.5c0,6.3-3.5,9.7-9.1,10.5
	c-57.3,8.3-83.1,55.1-83.1,109.6v93.3c0,4.7-3.2,9.1-7.8,9.9c-6.5,1-11.7-3.5-11.7-9.6v-212.6c0-4.7,3.2-9.1,7.8-9.9
	c6.5-1,11.7,3.5,11.7,9.6v43.3c16-27.2,48.2-53.1,81.6-53.1C1365.2,1475.4,1370.8,1479,1370.8,1484.5 M1691.2,1591.8
	c0,5.5-4.6,10-10.1,10H1486c4.9,48.2,41.1,92.2,92.2,92.2c34.9,0,60.8-13.3,80.2-41.1c2.8-3.8,7-6.3,12.4-4c2.9,1.3,5,4,5.5,7
	c0.5,3.2-0.4,5-1.3,6.8c-19.6,34.2-58.7,51-97,51c-65.6,0-112.4-58.7-112.4-121.5c0-62.8,46.8-121.5,112.4-121.5
	C1643.7,1470.6,1691.1,1529.1,1691.2,1591.8 M1670.4,1582.3c-4.2-48.2-41.1-92.2-92.2-92.2s-87.3,44-92.2,92.2H1670.4z M2006.2,1487
	v213.2c0,5.6-4.9,9.7-9.7,9.7c-5.6,0-9.7-4.2-9.7-9.7v-40.5c-16,32.2-44.7,55.1-81,55.1c-57.9,0-90.1-50.2-90.1-103.3v-125
	c0-4.9,4.2-9.7,9.7-9.7c5.6,0,9.7,4.9,9.7,9.7v125c0,41.9,23.7,83.8,70.5,83.8c65.6,0,81-61.4,81-129.2v-79.6
	c0-5.6,5.6-11.4,12.6-9.4C2003.4,1478.5,2006.2,1482.6,2006.2,1487 M2499.7,1573.9v125c0,5.6-4.9,9.7-9.7,9.7
	c-5.6,0-9.7-4.2-9.7-9.7v-125c0-41.9-23.7-83.1-70.5-83.1c-58.7,0-81,62.8-81,111.6v96.4c0,5.6-4.9,9.7-9.7,9.7
	c-5.6,0-9.7-4.2-9.7-9.7v-125c0-41.9-23.7-83.1-70.5-83.1c-59.3,0-83.8,46.8-81.6,108.9c0,1.4,0.6,4.2,0,4.9v94
	c0,4.7-3.2,9.1-7.9,9.9c-6.5,1-11.7-3.5-11.7-9.6v-213.3c0-4.7,3.2-9.1,7.8-9.9c6.5-1,11.7,3.5,11.7,9.6v35.6
	c16.8-30,46.8-49.6,81.6-49.6c39.7,0,70.5,25.1,83.1,62.2c16-36.3,47.4-62.2,87.9-62.2C2466.8,1471.3,2499.7,1520.8,2499.7,1573.9"
	/>
<path class="st1" d="M1576.6,603.8c0-0.3,0.2-0.5,0.5-0.5c0,0.2,0,0.3,0,0.5C1576.9,603.8,1576.7,603.8,1576.6,603.8L1576.6,603.8z"
	/>
<path class="st0" d="M1251.2,734c-0.2,0.4-0.4,0.3-0.6,0c-0.6-0.8-0.7-1.8-0.7-2.7c0-1.1,0-2.2,0-3.4c0-110.2,0-220.5,0-330.7
	c0-1.2,0-2.4,0.1-3.6c-0.2-1.8-0.1-3.5-0.1-5.3c0-127,0-254,0-381c0-2-0.1-4,0.8-5.9c0.6-0.7,0.8,0,1,0.3c1,1.6,1.9,3.1,2.9,4.7
	c50.5,83.8,100.9,167.6,151.4,251.4c56.2,93.3,112.4,186.6,168.6,279.9c0.7,1.2,1.7,2.3,2,3.8c-1.3,0.4-2.3-0.3-3.4-0.8
	c-17.5-8.1-35.1-16-52.6-24c-18.8-8.6-37.6-17.1-56.3-25.7c-18.4-8.4-36.8-16.7-55.3-25.1c-17-7.7-33.9-15.4-50.9-23.2
	c-16.7-7.6-33.3-15.1-50-22.7c-17.1-7.8-34.2-15.5-51.3-23.4c-5.8-2.7-4.8-2.1-4.8,3c0,109.9,0,219.8,0,329.7
	C1251.8,730.9,1252.2,732.6,1251.2,734z"/>
<path class="st2" d="M1250.6,1.4c0,0.9,0.1,1.8,0.1,2.6c0,128.7,0,257.4,0,386.1c0,1.1-0.1,2.2-0.1,3.4c-2.6,2.5-6,3.3-9.1,4.7
	c-11.8,5.4-23.6,10.8-35.3,16.1c-11.5,5.2-23,10.4-34.5,15.7c-11.6,5.3-23.3,10.6-34.9,15.9c-13.2,6-26.5,12-39.7,18
	c-11.2,5.1-22.4,10.2-33.6,15.3c-13.5,6.1-26.9,12.2-40.4,18.4c-11.5,5.2-23,10.5-34.5,15.7c-13.4,6.2-26.9,12.2-40.4,18.4
	c-6.2,2.8-12.4,5.6-18.5,8.4c-1.4,0.7-2.8,1.7-4.5,1.3c1.7-3.6,4-6.9,6-10.3c18.8-31.3,37.7-62.6,56.6-93.9
	c25.5-42.3,51-84.6,76.5-126.9c24.7-41,49.4-82.1,74.1-123.1c28.2-46.8,56.4-93.5,84.6-140.3c8.8-14.6,17.6-29.2,26.4-43.7
	C1249.7,2.5,1250,1.8,1250.6,1.4z"/>
<path class="st0" d="M925.2,541.4c8.9-4,17.8-8,26.6-12c13.2-6,26.3-11.9,39.5-17.9c8-3.6,16-7.3,24-10.9
	c13.4-6.1,26.9-12.2,40.4-18.3c7.4-3.4,14.8-6.8,22.2-10.1c13.7-6.2,27.5-12.5,41.2-18.7c8-3.6,16-7.3,24-10.9
	c11.7-5.3,23.4-10.6,35.1-15.9c7.6-3.4,15.1-6.9,22.7-10.3c13.5-6.1,27-12.3,40.6-18.4c3.1-1.4,6.1-2.7,9.2-4.1c0,1,0,2.1,0,3.1
	c0,111.3,0,222.7,0,334c0,1.1,0,2.2,0,3.4c-0.8-0.1-1.4-0.7-2.1-1.1c-107.2-63.3-214.3-126.6-321.5-190
	C926.3,542.5,925.3,542.5,925.2,541.4z"/>
<path class="st0" d="M1251.2,734c0-1,0-2.1,0-3.1c0-111.3,0-222.7,0-334c0-1-0.2-2.1,0.3-3.2c1.5,0.2,2.9,1.1,4.2,1.7
	c4.7,2.1,9.4,4.4,14.1,6.5c7.8,3.6,15.7,7.1,23.6,10.6c3.9,1.8,7.8,3.6,11.8,5.4c8.4,3.8,16.9,7.6,25.3,11.5c4,1.8,8,3.7,12,5.5
	c6.5,3,13.1,5.9,19.6,8.9c4.3,2,8.5,4,12.8,5.9c6.6,3,13.2,6,19.8,9c3.9,1.7,7.7,3.5,11.5,5.3c8.5,3.9,17,7.7,25.5,11.6
	c4.3,2,8.5,4,12.8,5.9c6.2,2.8,12.5,5.6,18.8,8.5c4.3,1.9,8.5,4,12.8,5.9c6.6,3,13.2,6,19.8,9c3.9,1.7,7.7,3.5,11.5,5.3
	c8.5,3.9,17,7.7,25.5,11.6c4.4,2,8.7,4,13,6c6.2,2.8,12.4,5.6,18.5,8.4c4,1.8,8,3.7,12,5.5c-0.1,1.1-1.2,1.2-1.9,1.6
	c-16.6,9.8-33.1,19.6-49.7,29.4c-90.5,53.5-180.9,106.9-271.4,160.4C1252.7,733.2,1252.1,733.8,1251.2,734z"/>
<path class="st0" d="M1575.7,605.4c-5.3,7.6-10.7,15.2-16,22.7c-93.9,132.3-187.9,264.6-281.9,396.9c-8.4,11.9-16.8,23.7-25.3,35.6
	c-0.5,0.6-0.7,1.4-1.5,1.8c-0.1,0-0.2,0-0.2,0c-0.1,0-0.1-0.1-0.1-0.2c-1-1.6-0.8-3.4-0.8-5.1c0-56.4,0-112.9,0-169.3
	c0-29.1,0-58.2,0-87.3c0-1.6-0.6-3.4,1.3-4.6c107.2-63.3,214.4-126.6,321.6-189.9c0.8-0.4,1.5-0.8,2.3-1.3
	C1575.6,604.6,1575.8,604.8,1575.7,605.4z"/>
<path class="st2" d="M1251.2,795.9c-0.6,1-0.4,2.2-0.4,3.3c0,42.4,0,84.7,0,127.1c0,44.5,0,89,0,133.6c0,0.8-0.1,1.6-0.1,2.4
	c-1.7-1.7-2.9-3.8-4.3-5.7c-27.8-39.1-55.6-78.2-83.3-117.3c-20-28.2-40.1-56.5-60.1-84.7c-27.5-38.8-55.1-77.6-82.6-116.4
	c-21.9-30.9-43.9-61.8-65.8-92.7c-9.4-13.3-18.9-26.6-28.3-39.9c-0.3-0.4-0.5-0.8-0.8-1.3c0.7-0.3,1.1,0.2,1.5,0.4
	c19.2,11.3,38.4,22.7,57.6,34c26.8,15.8,53.6,31.6,80.3,47.4c28.7,17,57.4,33.9,86.1,50.9c32.8,19.4,65.5,38.7,98.3,58.1
	C1249.8,795.4,1250.4,795.8,1251.2,795.9z"/>
<path class="st3" d="M1575.7,605.4c-0.2-0.2-0.4-0.4-0.7-0.7c0.4-0.5,0.9-0.8,1.5-0.9c0,0,0,0,0,0
	C1576.6,604.5,1576.3,605,1575.7,605.4z"/>
</svg>
